<?xml version="1.0" encoding="iso-8859-1"?>
<!-- Generator: Adobe Illustrator 19.0.0, SVG Export Plug-In . SVG Version: 6.00 Build 0)  -->
<svg version="1.1" id="Layer_1" xmlns="http://www.w3.org/2000/svg" xmlns:xlink="http://www.w3.org/1999/xlink" x="0px" y="0px"
	 viewBox="0 0 512 512" style="enable-background:new 0 0 512 512;" xml:space="preserve">
<g>
	<g>
		<path d="M369.621,435.947c-6.997-1.365-14.613-2.603-22.741-3.712c-6.037-0.725-11.243,3.307-12.011,9.131
			c-0.789,5.845,3.307,11.221,9.131,12.011c7.723,1.045,14.912,2.219,21.589,3.499c0.704,0.128,1.365,0.192,2.048,0.192
			c5.013,0,9.472-3.541,10.432-8.619C379.179,442.645,375.403,437.056,369.621,435.947z"/>
	</g>
</g>
<g>
	<g>
		<path d="M176.725,441.451c-0.789-5.845-6.144-9.963-12.011-9.152c-8.149,1.088-15.787,2.368-22.784,3.733
			c-5.803,1.131-9.557,6.741-8.405,12.523c1.003,5.077,5.461,8.597,10.432,8.597c0.683,0,1.387-0.064,2.091-0.149
			c6.635-1.323,13.845-2.496,21.547-3.541C173.44,452.651,177.515,447.275,176.725,441.451z"/>
	</g>
</g>
<g>
	<g>
		<path d="M233.024,426.987c-7.765,0.213-15.36,0.533-22.741,0.981c-5.888,0.341-10.389,5.376-10.027,11.264
			c0.341,5.675,5.013,10.048,10.645,10.048c0.213,0,0.405,0,0.64-0.021c7.168-0.405,14.571-0.725,22.123-0.939
			c5.867-0.171,10.517-5.077,10.347-10.965C243.84,431.445,238.848,426.837,233.024,426.987z"/>
	</g>
</g>
<g>
	<g>
		<path d="M301.312,427.947c-7.36-0.427-14.976-0.747-22.741-0.96c-6.955-0.171-10.795,4.501-10.965,10.368
			c-0.149,5.909,4.48,10.795,10.368,10.965c7.552,0.192,14.955,0.512,22.123,0.917c0.192,0.021,0.405,0.021,0.597,0.021
			c5.611,0,10.325-4.395,10.667-10.048C311.68,433.323,307.2,428.288,301.312,427.947z"/>
	</g>
</g>
<g>
	<g>
		<path d="M425.621,38.187C414.763,1.216,272.789,0,256,0S97.237,1.216,86.379,38.187c-0.64,1.387-1.045,2.859-1.045,4.48v426.667
			c0,1.707,0.469,3.328,1.152,4.843C98.155,510.805,239.275,512,256,512c16.789,0,158.763-1.216,169.621-38.187
			c0.64-1.387,1.045-2.859,1.045-4.48V42.667C426.667,41.045,426.261,39.573,425.621,38.187z M256,21.333
			c87.723,0,137.685,13.248,148.075,21.333C393.685,50.752,343.723,64,256,64S118.315,50.752,107.925,42.667
			C118.315,34.581,168.277,21.333,256,21.333z M405.333,451.52c-1.387,0.725-2.667,1.707-3.648,3.072
			c-3.392,4.651-2.411,11.093,2.112,14.635c-9.877,8.064-59.392,21.44-147.797,21.44c-91.605,0-141.653-14.379-148.544-20.779
			c0.192-0.149,0.256-0.235,0.512-0.427c4.757-3.456,5.803-10.133,2.347-14.891c-0.981-1.365-2.261-2.325-3.648-3.072V65.429
			C149.312,84.544,242.603,85.333,256,85.333s106.688-0.789,149.333-19.904V451.52z"/>
	</g>
</g>
<g>
</g>
<g>
</g>
<g>
</g>
<g>
</g>
<g>
</g>
<g>
</g>
<g>
</g>
<g>
</g>
<g>
</g>
<g>
</g>
<g>
</g>
<g>
</g>
<g>
</g>
<g>
</g>
<g>
</g>
</svg>
